<svg width="24" height="24" viewBox="0 0 24 24" fill="none" xmlns="http://www.w3.org/2000/svg">
<path fill-rule="evenodd" clip-rule="evenodd" d="M12.0071 0.00284679C13.6678 0.00284679 15.3286 -0.00484071 16.9893 0.00504991C18.5517 0.014378 20.019 0.370675 21.2904 1.32048C22.9507 2.56086 23.8003 4.25518 23.9585 6.29966C24.0142 7.01919 23.9968 7.74498 23.9978 8.46791C24.0015 11.2715 23.9995 14.0751 23.9992 16.8787C23.999 18.0238 23.8398 19.1417 23.3553 20.1888C22.3723 22.3128 20.6578 23.4739 18.3957 23.8763C17.924 23.9602 17.4374 23.9915 16.9576 23.993C13.6451 24.0028 10.3326 24.0005 7.02005 23.9971C5.29751 23.9953 3.72209 23.5404 2.37957 22.4229C1.01558 21.2876 0.295816 19.8027 0.0719179 18.0618C0.033293 17.7616 0.00964457 17.457 0.00936332 17.1545C0.00612895 13.6723 -0.0148945 10.1899 0.0192305 6.70813C0.0378867 4.8058 0.671308 3.11914 2.08745 1.79012C3.26211 0.687808 4.68994 0.111831 6.27663 0.055464C8.18454 -0.0123173 10.0967 0.0394093 12.0071 0.0394093C12.0071 0.0271984 12.0071 0.0150109 12.0071 0.00284679ZM11.9884 21.7821C13.5864 21.7821 15.1843 21.7885 16.7821 21.7777C17.2 21.7748 17.624 21.7541 18.034 21.6799C19.6003 21.3968 20.7911 20.6112 21.4151 19.0861C21.7322 18.3114 21.8357 17.48 21.8492 16.6749C21.9017 13.5514 21.8721 10.4264 21.8684 7.30201C21.868 6.96353 21.8643 6.62127 21.8165 6.28728C21.6017 4.78757 20.9516 3.55834 19.5713 2.81082C18.801 2.39361 17.9647 2.23609 17.0954 2.23581C13.7478 2.23482 10.4002 2.23384 7.05265 2.23785C6.75012 2.23822 6.44491 2.25496 6.14557 2.29703C4.44059 2.53642 3.18474 3.3767 2.55624 5.02984C2.3026 5.69694 2.22155 6.39596 2.22141 7.10567C2.22092 10.3729 2.21778 13.6401 2.2257 16.9074C2.22666 17.3071 2.25648 17.7126 2.32803 18.1054C2.64544 19.8481 3.61719 21.0459 5.34778 21.5275C5.92449 21.688 6.54096 21.7588 7.14127 21.7709C8.75643 21.8034 10.3726 21.782 11.9884 21.7821Z" fill="#78A6C8" fill-opacity="0.75"/>
<path fill-rule="evenodd" clip-rule="evenodd" d="M18.1853 11.9618C18.1838 15.3785 15.3961 18.1575 11.9786 18.1491C8.55973 18.1409 5.80644 15.3813 5.80444 11.961C5.80245 8.54445 8.58598 5.76523 12.0061 5.76896C15.3967 5.77261 18.1868 8.56894 18.1853 11.9618ZM11.9972 15.9185C14.1771 15.9202 15.9724 14.1262 15.9687 11.95C15.9649 9.78891 14.1741 7.99474 12.012 7.98595C9.83529 7.97712 8.0408 9.76568 8.03618 11.9486C8.03159 14.1347 9.80967 15.9168 11.9972 15.9185Z" fill="#78A6C8" fill-opacity="0.75"/>
<path fill-rule="evenodd" clip-rule="evenodd" d="M18.4148 7.0157C17.6409 7.00879 17.0308 6.38952 17.0333 5.61339C17.0358 4.82844 17.6611 4.213 18.4506 4.21839C19.2157 4.22369 19.8392 4.85514 19.8369 5.62239C19.8345 6.40051 19.1995 7.02271 18.4148 7.0157Z" fill="#78A6C8" fill-opacity="0.75"/>
</svg>
