<svg width="24" height="24" viewBox="0 0 24 24" fill="none" xmlns="http://www.w3.org/2000/svg">
<path d="M21.9614 0.00218303C21.6146 0.018927 21.2963 0.129634 21.0168 0.251943C20.7585 0.364847 19.8309 0.79755 18.3539 1.48514C16.8769 2.17272 14.9198 3.08437 12.8337 4.05819C8.66144 6.00582 3.97291 8.19666 1.57051 9.31877C1.48801 9.35692 1.15296 9.47076 0.782913 9.78447C0.412005 10.0989 0 10.7813 0 11.5276C0 12.1296 0.270771 12.7428 0.597733 13.0938C0.924694 13.4448 1.25606 13.609 1.53301 13.7312V13.7286C2.46916 14.1426 5.26482 15.3842 5.93045 15.6799C6.16655 16.4651 7.18014 19.827 7.42126 20.6725H7.41892C7.58936 21.2708 7.75548 21.6608 7.98618 21.9863C8.10153 22.1491 8.23922 22.2965 8.40811 22.413C8.47291 22.4577 8.54466 22.4923 8.61673 22.5249C8.62677 22.5296 8.63712 22.5308 8.6472 22.5353L8.61907 22.5275C8.63997 22.5368 8.65872 22.5505 8.68002 22.5587C8.71472 22.5719 8.73878 22.5715 8.7855 22.5821C8.94993 22.6382 9.11406 22.6757 9.26603 22.6757C9.91845 22.6757 10.3185 22.2829 10.3185 22.2829L10.3443 22.2621L13.1618 19.6162L16.6123 23.1597C16.6753 23.2584 17.169 24 18.3117 24C18.9936 24 19.5326 23.6254 19.8775 23.2325C20.2224 22.8396 20.4373 22.4376 20.5339 21.8926L20.5362 21.89C20.6133 21.4502 23.9163 3.04094 23.9163 3.04094L23.9093 3.07216C24.0121 2.56285 24.0425 2.07032 23.921 1.56839C23.7996 1.06646 23.4718 0.576632 23.0772 0.319587C22.6825 0.0625417 22.3082 -0.0145614 21.9614 0.00218303ZM21.4879 2.91866C21.3574 3.646 18.3985 20.1449 18.2156 21.1798L13.2322 16.0623L9.86376 19.2233L10.7967 15.1751C10.7967 15.1751 17.2326 7.94455 17.6202 7.52362C17.9323 7.18661 17.9976 7.06847 17.9976 6.95125C17.9976 6.7954 17.9253 6.68328 17.7585 6.68328C17.6085 6.68328 17.4048 6.84283 17.2967 6.91743C15.9242 7.86719 10.0781 11.5648 7.20327 13.38C7.03026 13.303 4.43276 12.1453 3.0332 11.525C5.52264 10.3621 9.78996 8.3694 13.7643 6.51417C15.85 5.54052 17.8066 4.62804 19.2822 3.94111C20.5277 3.36126 21.1775 3.06102 21.4879 2.91866ZM18.1805 21.3697H18.1828L18.1805 21.3775C18.182 21.3689 18.1793 21.3764 18.1805 21.3697Z" fill="#78A6C8" fill-opacity="0.75"/>
</svg>
