<svg width="34" height="24" viewBox="0 0 34 24" fill="none" xmlns="http://www.w3.org/2000/svg">
<path fill-rule="evenodd" clip-rule="evenodd" d="M33.7295 19.537C32.9372 17.7704 31.8932 16.1566 30.6377 14.7577C30.2105 14.2078 29.7095 13.6651 29.3184 13.2416L29.2638 13.1825C29.062 12.9638 28.8954 12.7824 28.759 12.6261C30.4757 9.98332 31.9451 7.15356 33.1439 4.1803L33.1923 4.06034L33.2262 3.93444C33.3837 3.34923 33.5652 2.2364 32.9233 1.23071C32.2597 0.191243 31.1972 0.0037749 30.4858 0.0037749H27.2125C26.5302 -0.0308483 25.8544 0.173376 25.2819 0.58858C24.7051 1.00691 24.2638 1.61712 24.021 2.33042C23.3161 4.18928 22.4341 5.95739 21.391 7.60514V3.35861C21.391 2.80969 21.3444 1.89144 20.8134 1.11641C20.1777 0.188437 19.2584 0.0037749 18.6202 0.0037749H13.4264C12.7572 -0.0133513 12.1064 0.251524 11.6063 0.74599C11.0941 1.25236 10.7802 1.95969 10.7312 2.71798L10.7266 2.78981V2.86183C10.7266 3.64473 11.0068 4.22223 11.2307 4.58542C11.3309 4.74803 11.4381 4.89605 11.5058 4.98953L11.5215 5.01111C11.5937 5.1108 11.6419 5.17734 11.6903 5.25018C11.8175 5.4418 12.0005 5.73723 12.0523 6.50172V8.87706C11.1569 7.24754 10.2123 5.0791 9.5016 2.76315L9.49069 2.72761L9.4786 2.69253C9.3014 2.17872 9.01717 1.4311 8.44791 0.858986C7.78289 0.190631 6.99631 0.0037749 6.28096 0.0037749H2.95979C2.2361 0.0037749 1.36365 0.191212 0.712664 0.951439C0.0725036 1.69904 0 2.59484 0 3.07113V3.28582L0.040844 3.49569C0.960748 8.22251 2.85621 12.649 5.57832 16.429C6.81245 18.5835 8.48472 20.3895 10.4621 21.702C12.471 23.0356 14.7374 23.8216 17.0745 23.9955L17.1354 24H17.1966C18.2539 24 19.3561 23.8991 20.185 23.2875C21.3031 22.4627 21.391 21.1958 21.391 20.5644V18.7294C21.6779 18.9862 22.034 19.3319 22.4698 19.7965C22.9967 20.3803 23.4162 20.8862 23.776 21.3277L23.968 21.5641L23.9692 21.5654C24.2486 21.9099 24.5236 22.249 24.774 22.5277C25.0888 22.8779 25.4768 23.264 25.9647 23.5491C26.4929 23.8579 27.0473 23.9976 27.6362 23.9976H30.9596C31.6597 23.9976 32.664 23.8142 33.37 22.9081C34.1394 21.9205 34.0807 20.7101 33.8388 19.8402L33.7952 19.6838L33.7295 19.537ZM25.3983 19.7073C25.0242 19.2482 24.5731 18.704 24.003 18.0729L23.9983 18.0678C22.0229 15.9593 21.0998 15.5919 20.4472 15.5919C20.1001 15.5919 19.7159 15.6351 19.4667 15.9788C19.349 16.141 19.2872 16.3368 19.2526 16.5408C19.2179 16.7444 19.2059 16.9836 19.2059 17.256V20.5644C19.2059 20.9753 19.1449 21.1479 18.9733 21.2747C18.7446 21.4433 18.2559 21.5801 17.2088 21.5811C15.2213 21.4311 13.2943 20.7617 11.5857 19.6275C9.87366 18.4911 8.42996 16.9205 7.37355 15.0454L7.36205 15.0251L7.34845 15.0062C4.81197 11.5111 3.04451 7.41119 2.18546 3.0303C2.19013 2.81911 2.23145 2.69382 2.29841 2.61561C2.36742 2.53503 2.53462 2.42272 2.95979 2.42272H6.28096C6.65041 2.42272 6.84161 2.51169 6.97922 2.64999C7.13523 2.80679 7.27055 3.07305 7.43493 3.54847C8.25011 6.20283 9.35247 8.68515 10.3964 10.5103C10.9181 11.4226 11.4316 12.182 11.8943 12.7185C12.1252 12.9865 12.3517 13.2084 12.5678 13.3663C12.777 13.519 13.0142 13.6395 13.2581 13.6395C13.3868 13.6395 13.5374 13.6248 13.6823 13.5537C13.8383 13.4774 13.9593 13.35 14.0447 13.1792C14.1959 12.8774 14.2373 12.4302 14.2373 11.8443V6.41988L14.2366 6.40715C14.1611 5.08747 13.8012 4.34513 13.4507 3.81739C13.3739 3.70173 13.2982 3.59727 13.2319 3.50585L13.2138 3.4808C13.141 3.38034 13.0831 3.29916 13.0355 3.22196C12.9483 3.08052 12.9145 2.9819 12.9118 2.87623C12.9232 2.7508 12.9766 2.63441 13.0617 2.5502C13.1501 2.4628 13.2658 2.41729 13.3842 2.42272H18.6202C18.9204 2.42272 19.0215 2.50381 19.0724 2.57808C19.1442 2.68294 19.2059 2.90101 19.2059 3.35861V10.6616C19.2059 11.529 19.5672 12.1164 20.0918 12.1164C20.6954 12.1164 21.1305 11.7109 21.8915 10.8685L21.9042 10.8545L21.9155 10.839C23.621 8.53663 25.0149 5.97155 26.0524 3.22435L26.0589 3.20375C26.137 2.961 26.2846 2.75318 26.4793 2.61198C26.6739 2.4708 26.905 2.40398 27.1372 2.42177L27.1498 2.42272H30.4858C30.9407 2.42272 31.0905 2.55091 31.1388 2.62672C31.1902 2.70737 31.2261 2.88023 31.1387 3.21922C29.9426 6.18067 28.4635 8.99172 26.7272 11.6051L26.7163 11.6235C26.5478 11.909 26.3629 12.2247 26.3361 12.5872C26.3074 12.9765 26.4597 13.3305 26.7258 13.7098C26.9198 14.0273 27.32 14.461 27.726 14.9009L27.7643 14.9423C28.1899 15.4035 28.6509 15.9031 29.0211 16.3869L29.031 16.3997L29.0418 16.4116C30.1452 17.6301 31.0628 19.0387 31.7586 20.5824C31.8698 21.0026 31.8018 21.2174 31.7154 21.3282C31.6144 21.4578 31.3881 21.5786 30.9596 21.5786H27.6362C27.3766 21.5786 27.1763 21.522 26.9849 21.4101C26.7855 21.2935 26.5804 21.1081 26.3232 20.8218C26.116 20.5912 25.8897 20.3122 25.6135 19.9721C25.545 19.8878 25.4735 19.7994 25.3983 19.7073Z" fill="#78A6C8" fill-opacity="0.75"/>
</svg>
